<svg width="28" height="28" viewBox="0 0 28 28" fill="none" xmlns="http://www.w3.org/2000/svg">
<path d="M25.4398 11.7151H24.5V11.6666H14V16.3333H20.5935C19.6315 19.0499 17.0468 21 14 21C10.1343 21 7.00004 17.8657 7.00004 14C7.00004 10.1342 10.1343 6.99998 14 6.99998C15.7845 6.99998 17.4079 7.67315 18.644 8.77273L21.9439 5.47281C19.8602 3.5309 17.073 2.33331 14 2.33331C7.55712 2.33331 2.33337 7.55706 2.33337 14C2.33337 20.4429 7.55712 25.6666 14 25.6666C20.443 25.6666 25.6667 20.4429 25.6667 14C25.6667 13.2177 25.5862 12.4541 25.4398 11.7151Z" fill="#FFC107"/>
<path d="M3.67847 8.56973L7.51155 11.3808C8.54872 8.81298 11.0606 6.99998 14 6.99998C15.7844 6.99998 17.4078 7.67315 18.6439 8.77273L21.9438 5.47281C19.8601 3.5309 17.073 2.33331 14 2.33331C9.5188 2.33331 5.63263 4.86323 3.67847 8.56973Z" fill="#FF3D00"/>
<path d="M14 25.6667C17.0135 25.6667 19.7517 24.5135 21.8219 22.638L18.2111 19.5825C17.0398 20.4698 15.5838 21 14 21C10.9655 21 8.38894 19.0651 7.41827 16.3649L3.61377 19.2961C5.5446 23.0744 9.46577 25.6667 14 25.6667Z" fill="#4CAF50"/>
<path d="M25.4398 11.7151H24.5V11.6667H14V16.3334H20.5934C20.1314 17.6383 19.292 18.7635 18.2093 19.5831C18.2099 19.5825 18.2105 19.5825 18.2111 19.5819L21.8219 22.6374C21.5664 22.8696 25.6667 19.8334 25.6667 14C25.6667 13.2178 25.5862 12.4542 25.4398 11.7151Z" fill="#1976D2"/>
</svg>
